<svg xmlns="http://www.w3.org/2000/svg" xmlns:xlink="http://www.w3.org/1999/xlink" viewBox="0 0 219 89">
  <defs>
    <style>
      .cls-1 {
        fill: #4a3810;
        stroke: #4a3810;
      }

      .cls-1, .cls-3, .cls-4, .cls-5 {
        stroke-width: 7px;
      }

      .cls-2 {
        fill: url(#linear-gradient);
      }

      .cls-3, .cls-4, .cls-5 {
        fill: none;
      }

      .cls-3 {
        stroke: #9ab21a;
      }

      .cls-4 {
        stroke: #f4f7dc;
      }

      .cls-5 {
        stroke: #ffd580;
      }

      .cls-6 {
        fill: #fdfcca;
        stroke: #1b5987;
        stroke-width: 1.2px;
        font-size: 34px;
        font-family: Montserrat-Bold, Montserrat;
        font-weight: 700;
      }

      .cls-7 {
        filter: url(#_1_Player);
      }

      .cls-8 {
        filter: url(#BorderColor);
      }

      .cls-9 {
        filter: url(#BorderShadow);
      }
    </style>
    <linearGradient id="linear-gradient" x1="0.5" x2="0.5" y2="1" gradientUnits="objectBoundingBox">
      <stop offset="0" stop-color="#823af5"/>
      <stop offset="1" stop-color="#c41f84"/>
    </linearGradient>
    <filter id="BorderShadow" x="0" y="0" width="219" height="89" filterUnits="userSpaceOnUse">
      <feOffset dy="3" input="SourceAlpha"/>
      <feGaussianBlur stdDeviation="3" result="blur"/>
      <feFlood flood-opacity="0.161"/>
      <feComposite operator="in" in2="blur"/>
      <feComposite in="SourceGraphic"/>
    </filter>
    <filter id="BorderColor" x="6" y="4" width="207" height="77" filterUnits="userSpaceOnUse">
      <feOffset dy="2" input="SourceAlpha"/>
      <feGaussianBlur stdDeviation="1" result="blur-2"/>
      <feFlood flood-opacity="0.161"/>
      <feComposite operator="in" in2="blur-2"/>
      <feComposite in="SourceGraphic"/>
    </filter>
    <filter id="_1_Player" x="36.8" y="17.8" width="142.4" height="49.4" filterUnits="userSpaceOnUse">
      <feOffset dy="5" input="SourceAlpha"/>
      <feGaussianBlur result="blur-3"/>
      <feFlood flood-opacity="0.161"/>
      <feComposite operator="in" in2="blur-3"/>
      <feComposite in="SourceGraphic"/>
    </filter>
  </defs>
  <g id="_1_Player-2" data-name="1 Player" transform="translate(-79.5 -228.5)">
    <g id="ButtonBG">
      <path id="BtnShadow" class="cls-1" d="M13,0H183a10,10,0,0,1,10,10l-3,44a10,10,0,0,1-10,10H10A10,10,0,0,1,0,54L3,10A10,10,0,0,1,13,0Z" transform="translate(93 244)"/>
      <path id="BG" class="cls-2" d="M14,0H184a10,10,0,0,1,10,10l-4,44a10,10,0,0,1-10,10H10A10,10,0,0,1,0,54L4,10A10,10,0,0,1,14,0Z" transform="translate(92 237)"/>
      <g class="cls-9" transform="matrix(1, 0, 0, 1, 79.5, 228.5)">
        <path id="BorderShadow-2" data-name="BorderShadow" class="cls-3" d="M14,0H184a10,10,0,0,1,10,10l-4,44a10,10,0,0,1-10,10H10A10,10,0,0,1,0,54L4,10A10,10,0,0,1,14,0Z" transform="translate(12.5 9.5)"/>
      </g>
      <path id="BorderLight" class="cls-4" d="M14,0H184a10,10,0,0,1,10,10l-4,44a10,10,0,0,1-10,10H10A10,10,0,0,1,0,54L4,10A10,10,0,0,1,14,0Z" transform="translate(92 236)"/>
      <g class="cls-8" transform="matrix(1, 0, 0, 1, 79.5, 228.5)">
        <path id="BorderColor-2" data-name="BorderColor" class="cls-5" d="M14,0H184a10,10,0,0,1,10,10l-4,44a10,10,0,0,1-10,10H10A10,10,0,0,1,0,54L4,10A10,10,0,0,1,14,0Z" transform="translate(12.5 8.5)"/>
      </g>
      <g class="cls-7" transform="matrix(1, 0, 0, 1, 79.5, 228.5)">
        <text id="_1_Player-3" data-name="1 Player" class="cls-6" transform="translate(38 52)"><tspan x="0" y="0">1 Player</tspan></text>
      </g>
    </g>
  </g>
</svg>
