<svg xmlns="http://www.w3.org/2000/svg" xmlns:xlink="http://www.w3.org/1999/xlink" viewBox="0 0 32 29">
  <defs>
    <style>
      .cls-1 {
        fill: url(#radial-gradient);
      }

      .cls-2 {
        opacity: 0.465;
      }

      .cls-3 {
        fill: #ffd800;
      }

      .cls-4 {
        fill: none;
        stroke: #906900;
        stroke-width: 3px;
      }

      .cls-5 {
        filter: url(#Path_291);
      }
    </style>
    <radialGradient id="radial-gradient" cx="0.5" cy="0.5" r="0.5" gradientUnits="objectBoundingBox">
      <stop offset="0" stop-color="#fcf8e0"/>
      <stop offset="1" stop-color="#f5e382"/>
    </radialGradient>
    <filter id="Path_291" x="0" y="0" width="32" height="29" filterUnits="userSpaceOnUse">
      <feOffset dy="2" input="SourceAlpha"/>
      <feGaussianBlur stdDeviation="1" result="blur"/>
      <feFlood flood-opacity="0.161"/>
      <feComposite operator="in" in2="blur"/>
      <feComposite in="SourceGraphic"/>
    </filter>
  </defs>
  <g id="Buy_More_Btn" data-name="Buy More Btn" transform="translate(-209.067 -5)">
    <g id="BG">
      <g class="cls-5" transform="matrix(1, 0, 0, 1, 209.07, 5)">
        <path id="Path_291-2" data-name="Path 291" class="cls-1" d="M7,0H22a4,4,0,0,1,4,4L23,19a4,4,0,0,1-4,4H4a4,4,0,0,1-4-4L3,4A4,4,0,0,1,7,0Z" transform="translate(3 1)"/>
      </g>
      <path id="Path_293" data-name="Path 293" class="cls-2" d="M25.292-1.1a3.592,3.592,0,0,1,.737,2.3L22.983,16.9c0,1.963-1.9,3.341-4.1,3.341H3.972c-2.2,0-3.06-1.285-3.06-1.476Z" transform="translate(212.067 8.784)"/>
      <path id="Path_292" data-name="Path 292" class="cls-3" d="M5.305,0H16.674a3.032,3.032,0,0,1,3.032,3.032L17.432,14.4A3.032,3.032,0,0,1,14.4,17.432H3.032A3.032,3.032,0,0,1,0,14.4L2.274,3.032A3.032,3.032,0,0,1,5.305,0Z" transform="translate(215.214 8.784)"/>
    </g>
    <g id="Plus" transform="translate(-14.712 -14.074)">
      <path id="Path_294" data-name="Path 294" class="cls-4" d="M2020.275,26.074V37.067" transform="translate(-1780)"/>
      <path id="Path_295" data-name="Path 295" class="cls-4" d="M2020.275,26.074V37.067" transform="translate(271.845 -1988.705) rotate(90)"/>
    </g>
  </g>
</svg>
