<svg xmlns="http://www.w3.org/2000/svg" xmlns:xlink="http://www.w3.org/1999/xlink" viewBox="0 0 101.953 31.016">
  <defs>
    <style>
      .cls-1 {
        opacity: 0.3;
        fill: url(#linear-gradient);
      }

      .cls-2, .cls-3 {
        stroke: none;
      }

      .cls-3 {
        fill: #707070;
      }
    </style>
    <linearGradient id="linear-gradient" x1="0.5" x2="0.5" y2="1" gradientUnits="objectBoundingBox">
      <stop offset="0"/>
      <stop offset="1" stop-color="#545454"/>
    </linearGradient>
  </defs>
  <g id="Path_254" data-name="Path 254" class="cls-1" transform="translate(0 0.113)">
    <path class="cls-2" d="M 93.08673095703125 29.40336799621582 L 6.051144123077393 29.40336799621582 C 4.898144245147705 29.40336799621582 3.793658494949341 28.81968116760254 2.941144227981567 27.75983810424805 C 2.035185098648071 26.63353538513184 1.526007294654846 25.12722015380859 1.500972151756287 23.50624656677246 L 4.292372703552246 7.670281887054443 L 4.315144538879395 7.54108190536499 L 4.315144538879395 7.409895896911621 C 4.315144538879395 5.741224765777588 4.826958656311035 4.185967445373535 5.756287097930908 3.030610322952271 C 6.608801364898682 1.970767378807068 7.713287353515625 1.387081742286682 8.866287231445313 1.387081742286682 L 95.90187072753906 1.387081742286682 C 97.05487060546875 1.387081742286682 98.15934753417969 1.970767378807068 99.01185607910156 3.030610322952271 C 99.91781616210938 4.156914234161377 100.4269943237305 5.663228988647461 100.452033996582 7.284202098846436 L 97.66062927246094 23.12016677856445 L 97.63785552978516 23.24936676025391 L 97.63785552978516 23.38055229187012 C 97.63785552978516 25.04922485351563 97.12604522705078 26.60448265075684 96.19671630859375 27.75983810424805 C 95.34420013427734 28.81968116760254 94.23973083496094 29.40336799621582 93.08673095703125 29.40336799621582 Z"/>
    <path class="cls-3" d="M 8.86627197265625 2.887086868286133 C 7.935714721679688 2.887086868286133 7.250640869140625 3.566055297851563 6.925086975097656 3.97077751159668 C 6.219703674316406 4.84771728515625 5.815132141113281 6.101224899291992 5.815132141113281 7.409885406494141 L 5.815132141113281 7.672269821166992 L 5.769577026367188 7.930669784545898 L 3.004425048828125 23.61776542663574 C 3.050132751464844 24.8397216796875 3.447303771972656 25.99588203430176 4.109947204589844 26.81967163085938 C 4.43548583984375 27.22439384460449 5.120574951171875 27.90336227416992 6.051132202148438 27.90336227416992 L 93.08673095703125 27.90336227416992 C 94.01727294921875 27.90336227416992 94.70236206054688 27.22439384460449 95.02790069580078 26.81967163085938 C 95.73329925537109 25.9427318572998 96.13785552978516 24.68922424316406 96.13785552978516 23.38056373596191 L 96.13785552978516 23.11817932128906 L 96.18341064453125 22.85977935791016 L 98.94856262207031 7.172683715820313 C 98.90285491943359 5.950727462768555 98.50568389892578 4.794567108154297 97.84304046630859 3.97077751159668 C 97.51750183105469 3.566055297851563 96.83241271972656 2.887086868286133 95.90187072753906 2.887086868286133 L 8.86627197265625 2.887086868286133 M 8.86627197265625 -0.1129131317138672 L 95.90187072753906 -0.1129131317138672 C 99.24381256103516 -0.1129131317138672 101.952995300293 3.255163192749023 101.952995300293 7.409885406494141 L 99.13785552978516 23.38056373596191 C 99.13785552978516 27.53528594970703 96.42867279052734 30.90336227416992 93.08673095703125 30.90336227416992 L 6.051132202148438 30.90336227416992 C 2.709175109863281 30.90336227416992 -7.62939453125e-06 27.53528594970703 -7.62939453125e-06 23.38056373596191 L 2.815132141113281 7.409885406494141 C 2.815132141113281 3.255163192749023 5.524330139160156 -0.1129131317138672 8.86627197265625 -0.1129131317138672 Z"/>
  </g>
</svg>
