<svg xmlns="http://www.w3.org/2000/svg" xmlns:xlink="http://www.w3.org/1999/xlink" viewBox="0 0 125.575 31.016">
  <defs>
    <style>
      .cls-1 {
        opacity: 0.3;
        fill: url(#linear-gradient);
      }

      .cls-2, .cls-3 {
        stroke: none;
      }

      .cls-3 {
        fill: #707070;
      }
    </style>
    <linearGradient id="linear-gradient" x1="0.5" x2="0.5" y2="1" gradientUnits="objectBoundingBox">
      <stop offset="0"/>
      <stop offset="1" stop-color="#545454"/>
    </linearGradient>
  </defs>
  <g id="Path_260" data-name="Path 260" class="cls-1" transform="translate(0 0.113)">
    <path class="cls-2" d="M 114.6541900634766 29.40337371826172 L 7.453136920928955 29.40337371826172 C 4.220858573913574 29.40337371826172 1.581977009773254 26.78382682800293 1.501881003379822 23.53286552429199 L 4.933237075805664 7.728141307830811 L 4.967386722564697 7.570841312408447 L 4.967386722564697 7.409891128540039 C 4.967386722564697 4.08889102935791 7.637953281402588 1.387074589729309 10.92051982879639 1.387074589729309 L 118.1215667724609 1.387074589729309 C 121.3538513183594 1.387074589729309 123.9927291870117 4.006622314453125 124.0728225708008 7.257583141326904 L 120.641471862793 23.06230735778809 L 120.6073226928711 23.21960830688477 L 120.6073226928711 23.38055801391602 C 120.6073226928711 26.70155715942383 117.9367523193359 29.40337371826172 114.6541900634766 29.40337371826172 Z"/>
    <path class="cls-3" d="M 10.92051696777344 2.887079238891602 C 8.465065002441406 2.887079238891602 6.467391967773438 4.916006088256836 6.467391967773438 7.409896850585938 L 6.467391967773438 7.731805801391602 L 6.399078369140625 8.046405792236328 L 3.008567810058594 23.66291427612305 C 3.152572631835938 26.02578544616699 5.091033935546875 27.90336990356445 7.453132629394531 27.90336990356445 L 114.6541900634766 27.90336990356445 C 117.1096420288086 27.90336990356445 119.1073150634766 25.87444305419922 119.1073150634766 23.38055229187012 L 119.1073150634766 23.05864334106445 L 119.1756057739258 22.74404144287109 L 122.5661163330078 7.127470016479492 C 122.4221115112305 4.76460075378418 120.4836578369141 2.887079238891602 118.1215744018555 2.887079238891602 L 10.92051696777344 2.887079238891602 M 10.92051696777344 -0.1129207611083984 L 118.1215744018555 -0.1129207611083984 C 122.2378082275391 -0.1129207611083984 125.5746994018555 3.255151748657227 125.5746994018555 7.409896850585938 L 122.1073150634766 23.38055229187012 C 122.1073150634766 27.53529739379883 118.7704238891602 30.90336990356445 114.6541900634766 30.90336990356445 L 7.453132629394531 30.90336990356445 C 3.336883544921875 30.90336990356445 -7.62939453125e-06 27.53529739379883 -7.62939453125e-06 23.38055229187012 L 3.467391967773438 7.409896850585938 C 3.467391967773438 3.255151748657227 6.80426025390625 -0.1129207611083984 10.92051696777344 -0.1129207611083984 Z"/>
  </g>
</svg>
