<svg xmlns="http://www.w3.org/2000/svg" xmlns:xlink="http://www.w3.org/1999/xlink" viewBox="0 0 73 73">
  <defs>
    <style>
      .cls-1 {
        fill: #003934;
      }

      .cls-1, .cls-3 {
        stroke: #003934;
      }

      .cls-1, .cls-3, .cls-4, .cls-5 {
        stroke-width: 4px;
      }

      .cls-2 {
        fill: url(#linear-gradient);
      }

      .cls-3, .cls-4, .cls-5 {
        fill: none;
      }

      .cls-4 {
        stroke: #bbdedc;
      }

      .cls-5, .cls-6 {
        stroke: #05bcae;
      }

      .cls-6 {
        fill: #fdf3dd;
      }

      .cls-7 {
        opacity: 0.35;
      }

      .cls-8 {
        fill: #fff;
      }

      .cls-9 {
        filter: url(#Arrow);
      }

      .cls-10 {
        filter: url(#BorderColor);
      }

      .cls-11 {
        filter: url(#BorderShadow-2);
      }

      .cls-12 {
        filter: url(#BorderShadow);
      }
    </style>
    <filter id="BorderShadow" x="6" y="8" width="61" height="63" filterUnits="userSpaceOnUse">
      <feOffset dy="3" input="SourceAlpha"/>
      <feGaussianBlur result="blur"/>
      <feFlood flood-opacity="0.161"/>
      <feComposite operator="in" in2="blur"/>
      <feComposite in="SourceGraphic"/>
    </filter>
    <linearGradient id="linear-gradient" x1="0.5" x2="0.5" y2="1" gradientUnits="objectBoundingBox">
      <stop offset="0" stop-color="#f0a98f"/>
      <stop offset="1" stop-color="#bc491f"/>
    </linearGradient>
    <filter id="BorderShadow-2" x="3" y="4" width="67" height="66" filterUnits="userSpaceOnUse">
      <feOffset dy="3" input="SourceAlpha"/>
      <feGaussianBlur stdDeviation="1" result="blur-2"/>
      <feFlood flood-opacity="0.161"/>
      <feComposite operator="in" in2="blur-2"/>
      <feComposite in="SourceGraphic"/>
    </filter>
    <filter id="BorderColor" x="0" y="0" width="73" height="73" filterUnits="userSpaceOnUse">
      <feOffset dy="3" input="SourceAlpha"/>
      <feGaussianBlur stdDeviation="2" result="blur-3"/>
      <feFlood flood-opacity="0.161"/>
      <feComposite operator="in" in2="blur-3"/>
      <feComposite in="SourceGraphic"/>
    </filter>
    <filter id="Arrow" x="16.601" y="16.037" width="42.901" height="38.325" filterUnits="userSpaceOnUse">
      <feOffset dy="1" input="SourceAlpha"/>
      <feGaussianBlur stdDeviation="0.5" result="blur-4"/>
      <feFlood flood-opacity="0.161"/>
      <feComposite operator="in" in2="blur-4"/>
      <feComposite in="SourceGraphic"/>
    </filter>
  </defs>
  <g id="Back" transform="translate(8 2)">
    <g class="cls-12" transform="matrix(1, 0, 0, 1, -8, -2)">
      <rect id="BorderShadow-3" data-name="BorderShadow" class="cls-1" width="57" height="56" rx="15" transform="translate(8 10)"/>
    </g>
    <rect id="BG" class="cls-2" width="57" height="57" rx="15" transform="translate(0 3)"/>
    <g class="cls-11" transform="matrix(1, 0, 0, 1, -8, -2)">
      <rect id="BorderShadow-4" data-name="BorderShadow" class="cls-3" width="57" height="56" rx="15" transform="translate(8 6)"/>
    </g>
    <rect id="BorderLight" class="cls-4" width="57" height="57" rx="15" transform="translate(0 2)"/>
    <g class="cls-10" transform="matrix(1, 0, 0, 1, -8, -2)">
      <rect id="BorderColor-2" data-name="BorderColor" class="cls-5" width="57" height="57" rx="15" transform="translate(8 5)"/>
    </g>
    <g class="cls-9" transform="matrix(1, 0, 0, 1, -8, -2)">
      <path id="Arrow-2" data-name="Arrow" class="cls-6" d="M.947,12.807q2.894,5.886,15.627,5.886h4v3.739a.827.827,0,0,0,.339.657,1.3,1.3,0,0,0,1.607,0l9.144-7.477a.806.806,0,0,0,0-1.314L22.521,6.819a1.3,1.3,0,0,0-1.607,0,.827.827,0,0,0-.339.657v3.739h-4q-1.75,0-3.134-.087a27.363,27.363,0,0,1-2.75-.314,11.891,11.891,0,0,1-2.376-.621A8.769,8.769,0,0,1,6.43,9.178,5.41,5.41,0,0,1,5,7.7a7.052,7.052,0,0,1-.866-2.023,10.26,10.26,0,0,1-.313-2.643q0-.8.089-1.8A2.466,2.466,0,0,1,3.956.9,2.474,2.474,0,0,0,4,.511.486.486,0,0,0,3.849.146.582.582,0,0,0,3.429,0a.644.644,0,0,0-.5.248A1.638,1.638,0,0,0,2.7.57q-.107.19-.241.438c-.09.166-.152.282-.188.35Q0,5.52,0,7.944A11.13,11.13,0,0,0,.947,12.807Z" transform="translate(57.35 38.7) rotate(157)"/>
    </g>
    <g id="Shine" class="cls-7" transform="translate(0 3)">
      <ellipse id="Ellipse_152" data-name="Ellipse 152" class="cls-8" cx="8" cy="1.5" rx="8" ry="1.5" transform="translate(29 5)"/>
      <circle id="Ellipse_153" data-name="Ellipse 153" class="cls-8" cx="1.5" cy="1.5" r="1.5" transform="translate(48 11)"/>
      <ellipse id="Ellipse_154" data-name="Ellipse 154" class="cls-8" cx="11" cy="1" rx="11" ry="1" transform="translate(10 50)"/>
    </g>
  </g>
</svg>
